<?xml version="1.0" encoding="UTF-8" standalone="no"?>
<svg width="25px" height="25px" viewBox="0 0 25 25" version="1.1" xmlns="http://www.w3.org/2000/svg" xmlns:xlink="http://www.w3.org/1999/xlink" xmlns:sketch="http://www.bohemiancoding.com/sketch/ns">
    <!-- Generator: Sketch 3.4.2 (15855) - http://www.bohemiancoding.com/sketch -->
    <title>center</title>
    <desc>Created with Sketch.</desc>
    <defs></defs>
    <g id="Page-1" stroke="none" stroke-width="1" fill="none" fill-rule="evenodd" sketch:type="MSPage">
        <circle id="Oval-1" opacity="0.6" fill="#333333" sketch:type="MSShapeGroup" cx="12.5" cy="12.5" r="12.5"></circle>
        <g id="Rectangle-3-+-Rectangle-4-+-Rectangle-4" sketch:type="MSLayerGroup" transform="translate(11.000000, 4.000000)" fill="#FFFFFF">
            <rect id="Rectangle-3" sketch:type="MSShapeGroup" x="1" y="2" width="1" height="13"></rect>
            <path d="M1,0 L2,0 L3,4 L0,4 L1,0 Z" id="Rectangle-4" sketch:type="MSShapeGroup"></path>
            <path d="M1,13 L2,13 L3,17 L0,17 L1,13 Z" id="Rectangle-4" sketch:type="MSShapeGroup" transform="translate(1.500000, 15.000000) scale(1, -1) translate(-1.500000, -15.000000) "></path>
        </g>
        <g id="Rectangle-3-+-Rectangle-4-+-Rectangle-4" sketch:type="MSLayerGroup" transform="translate(12.500000, 12.500000) rotate(-270.000000) translate(-12.500000, -12.500000) translate(11.000000, 4.000000)" fill="#FFFFFF">
            <rect id="Rectangle-3" sketch:type="MSShapeGroup" x="1" y="2" width="1" height="13"></rect>
            <path d="M1,0 L2,0 L3,4 L0,4 L1,0 Z" id="Rectangle-4" sketch:type="MSShapeGroup"></path>
            <path d="M1,13 L2,13 L3,17 L0,17 L1,13 Z" id="Rectangle-4" sketch:type="MSShapeGroup" transform="translate(1.500000, 15.000000) scale(1, -1) translate(-1.500000, -15.000000) "></path>
        </g>
    </g>
</svg>